<svg width="144" height="144" viewBox="0 0 144 144" fill="none" xmlns="http://www.w3.org/2000/svg">
    <g clip-path="url(#clip0_26_146)">
        <path fill-rule="evenodd" clip-rule="evenodd" d="M68 134.392C68 139.704 64.424 143.992 60 143.992C55.576 143.992 52 139.704 52 134.392C52 129.096 60 111.992 60 111.992C60 111.992 68 129.096 68 134.392Z" fill="#00697D"/>
        <path fill-rule="evenodd" clip-rule="evenodd" d="M36 134.392C36 139.704 32.424 143.992 28 143.992C23.576 143.992 20 139.704 20 134.392C20 129.096 28 111.992 28 111.992C28 111.992 36 129.096 36 134.392Z" fill="#00697D"/>
        <path fill-rule="evenodd" clip-rule="evenodd" d="M100 134.392C100 139.704 96.424 143.992 92 143.992C87.576 143.992 84 139.704 84 134.392C84 129.096 92 111.992 92 111.992C92 111.992 100 129.096 100 134.392Z" fill="#00697D"/>
        <path fill-rule="evenodd" clip-rule="evenodd" d="M96 56C95.856 56 95.736 56.04 95.6 56.04C93.664 42.48 82.104 32 68 32C52.536 32 40 44.536 40 60C40 62.208 38.208 64 36 64C33.792 64 32 62.208 32 60C32 56.048 32.8 52.304 33.984 48.736C32.056 48.296 30.072 48 28 48C12.536 48 0 60.536 0 76.008C0 91.472 12.536 104.008 28 104.008H96C109.248 104.008 120 93.248 120 80.008C120 66.76 109.248 56 96 56Z" fill="#BEBDBD"/>
        <path d="M132.096 43.032L142.8 36.64C143.736 36.064 144.208 34.944 143.928 33.88C143.632 32.832 142.712 32.08 141.592 32.072L128.616 31.888C126.104 31.784 124.184 30.888 123.224 29.36C122.32 27.936 122.304 26.016 123.184 23.92L127.88 12.736C128.312 11.752 128.008 10.576 127.168 9.88799C126.344 9.20799 125.16 9.152 124.264 9.76L113.92 16.72C109.8 19.504 105.472 18.032 104.24 13.36L101.112 1.64C100.568 -0.440005 97.168 -0.576005 96.432 1.456L92.392 12.872C90.776 17.44 86.376 18.552 82.456 15.448L72.72 7.68C71.88 7.008 70.672 6.976 69.8 7.584C68.912 8.2 68.52 9.344 68.872 10.368L72.648 21.896C72.944 22.8 73 23.616 72.992 24.408C77.688 25.08 82.088 26.712 86.056 29.064C89.456 26.928 93.496 25.752 97.8 25.92C109.152 26.384 117.968 35.976 117.52 47.304C117.408 50.016 116.752 52.568 115.696 54.904C118.912 57.432 121.672 60.504 123.728 64.064C124.784 63.592 126.032 63.304 127.64 63.408L140.28 64.232C141.408 64.216 142.392 63.64 142.76 62.6C143.128 61.576 142.768 60.424 141.872 59.8L131.704 52.544C129.704 51.12 128.64 49.392 128.704 47.656C128.784 45.936 129.968 44.304 132.096 43.032Z" fill="#C88C32"/>
    </g>
    <defs>
        <clipPath id="clip0_26_146">
            <rect width="144" height="144" fill="white"/>
        </clipPath>
    </defs>
</svg>
